<svg width="24" height="24" viewBox="0 0 24 24" fill="none" xmlns="http://www.w3.org/2000/svg">
<path d="M10.0799 1.43994C5.57805 1.43994 1.91992 5.09807 1.91992 9.59994C1.91992 14.1018 5.57805 17.7599 10.0799 17.7599C11.8612 17.7599 13.5074 17.1862 14.8499 16.2149L21.1649 22.5149L22.5149 21.1649L16.2749 14.9099C17.5012 13.4812 18.2399 11.6268 18.2399 9.59994C18.2399 5.09807 14.5818 1.43994 10.0799 1.43994ZM10.0799 2.39994C14.0624 2.39994 17.2799 5.61744 17.2799 9.59994C17.2799 13.5824 14.0624 16.7999 10.0799 16.7999C6.09742 16.7999 2.87992 13.5824 2.87992 9.59994C2.87992 5.61744 6.09742 2.39994 10.0799 2.39994Z" fill="white"/>
<path fill-rule="evenodd" clip-rule="evenodd" d="M11.8655 6.50992L8.0896 9.12582L9.55903 9.97602C9.76656 10.0961 9.8271 10.3796 9.69426 10.6091L8.37025 12.8975L12.1681 10.3203L10.6654 9.45088C10.4579 9.33081 10.3973 9.04734 10.5302 8.81775L11.8655 6.50992ZM12.2308 5.61027C12.5547 5.3859 12.9103 5.74429 12.709 6.09219L11.0292 8.9955L12.7075 9.96654C12.9345 10.0979 12.9247 10.4497 12.6895 10.6093L8.01025 13.7846C7.68621 14.0045 7.335 13.6466 7.53522 13.3005L9.19524 10.4314L7.55309 9.48127C7.32739 9.35068 7.33547 9.00175 7.56792 8.84071L12.2308 5.61027Z" fill="white"/>
</svg>
